<?xml version="1.0" encoding="utf-8"?>
<!-- Generator: Adobe Illustrator 19.0.0, SVG Export Plug-In . SVG Version: 6.00 Build 0)  -->
<svg version="1.1" id="Layer_1" xmlns="http://www.w3.org/2000/svg" xmlns:xlink="http://www.w3.org/1999/xlink" x="0px" y="0px"
	 viewBox="0 0 612 792" style="enable-background:new 0 0 612 792;" xml:space="preserve">
<style type="text/css">
	.st0{fill:none;stroke:#000000;stroke-width:5;stroke-miterlimit:10;}
	.st1{fill:#9B9B9B;}
	.st2{fill:#050606;}
	.st3{fill:#5B5C5C;}
</style>
<path id="XMLID_3_" class="st0" d="M96.3,167"/>
<g id="XMLID_5_">
	<path id="XMLID_13_" class="st1" d="M67.5,588.3c24-15.6,80.1-48.3,159.1-59.6L150.8,453C132.7,534,76.1,581.3,67.5,588.3z"/>
	<path id="XMLID_14_" class="st1" d="M558.5,167c-24,15.6-80.1,48.3-159.1,59.6l73.4,73.4C492.3,219.3,550.6,173,558.5,167z"/>
	<path id="XMLID_15_" class="st1" d="M67.5,165.8c8.5,6.9,65.2,54.3,83.3,135.3l75.7-75.7C147.5,214.1,91.4,181.4,67.5,165.8z"/>
	<path id="XMLID_16_" class="st1" d="M472.9,454.1l-73.4,73.4c79,11.3,135.2,44,159.1,59.6C550.5,581,492.2,534.8,472.9,454.1z"/>
	<path id="XMLID_9_" class="st2" d="M313.5,139.6L76.6,376.5l236.9,236.9l236.9-236.9L313.5,139.6z M313.5,535.4
		c-14,0-26.6,5.7-35.7,14.8L139.8,412.2c9.1-9.1,14.8-21.8,14.8-35.7c0-14-5.7-26.6-14.8-35.7l137.9-137.9
		c9.1,9.1,21.8,14.8,35.7,14.8s26.6-5.7,35.7-14.8l137.9,137.9c-9.1,9.1-14.8,21.8-14.8,35.7c0,14,5.7,26.6,14.8,35.7L349.2,550.2
		C340.1,541,327.5,535.4,313.5,535.4z"/>
	<g id="XMLID_1_">
		<path id="XMLID_7_" class="st3" d="M267.2,164.8L267.2,164.8c-2-2-2-5.1,0-7.1l43.4-43.4c2-2,5.1-2,7.1,0l42.1,42.1
			c2,2,2,5.1,0,7.1l0,0c-2,2-5.1,2-7.1,0l-35.1-35.1c-2-2-5.1-2-7.1,0l-36.3,36.3C272.3,166.8,269.2,166.8,267.2,164.8z"/>
	</g>
	<g id="XMLID_2_">
		<path id="XMLID_17_" class="st3" d="M359.8,588.2L359.8,588.2c2,2,2,5.1,0,7.1l-43.4,43.4c-2,2-5.1,2-7.1,0l-42.1-42.1
			c-2-2-2-5.1,0-7.1l0,0c2-2,5.1-2,7.1,0l35.1,35.1c2,2,5.1,2,7.1,0l36.3-36.3C354.7,586.2,357.8,586.2,359.8,588.2z"/>
	</g>
	<g id="XMLID_18_">
		<path id="XMLID_19_" class="st3" d="M525.2,330.2L525.2,330.2c2-2,5.1-2,7.1,0l43.4,43.4c2,2,2,5.1,0,7.1l-42.1,42.1
			c-2,2-5.1,2-7.1,0l0,0c-2-2-2-5.1,0-7.1l35.1-35.1c2-2,2-5.1,0-7.1l-36.3-36.3C523.2,335.3,523.2,332.2,525.2,330.2z"/>
	</g>
	<g id="XMLID_20_">
		<path id="XMLID_21_" class="st3" d="M105.9,422.8L105.9,422.8c-2,2-5.1,2-7.1,0l-43.4-43.4c-2-2-2-5.1,0-7.1l42.1-42.1
			c2-2,5.1-2,7.1,0l0,0c2,2,2,5.1,0,7.1l-35.1,35.1c-2,2-2,5.1,0,7.1l36.3,36.3C107.8,417.7,107.8,420.8,105.9,422.8z"/>
	</g>
</g>
</svg>
