<svg width="198" height="201" viewBox="0 0 198 201" fill="none" xmlns="http://www.w3.org/2000/svg">
<g id="options-frame">
<path id="spike-bottom-left" d="M6.47791 179.841C15.5367 173.932 36.7117 161.545 66.5304 157.265L37.9196 128.591C31.0877 159.273 9.72398 177.189 6.47791 179.841Z" fill="#9F84FF"/>
<path id="spike-top-right" d="M190.806 21.2576C181.748 27.1667 160.573 39.553 130.754 43.8333L158.459 71.6364C165.819 41.0682 187.824 23.5303 190.806 21.2576Z" fill="#9F84FF"/>
<path id="spike-top-left" d="M6.47791 21.803C9.68624 24.4167 31.0877 42.3712 37.9196 73.053L66.4926 44.3788C36.674 40.0985 15.499 27.7121 6.47791 21.803Z" fill="#9F84FF"/>
<path id="spike-bottom-right" d="M157.497 129.008L129.792 156.811C159.61 161.091 180.823 173.477 189.844 179.386C186.787 177.076 164.781 159.576 157.497 129.008Z" fill="#9F84FF"/>
<path id="main-frame" d="M98.3309 10.8788L8.91272 100.614L98.3309 190.349L187.749 100.614L98.3309 10.8788ZM98.3309 160.803C93.0465 160.803 88.2907 162.962 84.8558 166.409L32.7676 114.136C36.2024 110.689 38.3539 105.879 38.3539 100.614C38.3539 95.3106 36.2024 90.5379 32.7676 87.0909L84.8181 34.8561C88.2529 38.303 93.0465 40.4621 98.2931 40.4621C103.54 40.4621 108.333 38.303 111.768 34.8561L163.819 87.0909C160.384 90.5379 158.232 95.3485 158.232 100.614C158.232 105.917 160.384 110.689 163.819 114.136L111.806 166.409C108.371 162.924 103.615 160.803 98.3309 160.803Z" fill="#9F84FF"/>
<g id="chevron-top">
<path id="XMLID_7_" d="M80.8549 20.4242C80.1 19.6667 80.1 18.4924 80.8549 17.7349L97.2362 1.29546C97.9911 0.537886 99.1612 0.537886 99.9161 1.29546L115.807 17.2424C116.562 18 116.562 19.1742 115.807 19.9318C115.052 20.6894 113.882 20.6894 113.127 19.9318L99.8784 6.63637C99.1235 5.87879 97.9534 5.87879 97.1985 6.63637L83.497 20.3864C82.7799 21.1818 81.6098 21.1818 80.8549 20.4242Z" fill="#9F84FF"/>
</g>
<g id="chevron-bottom">
<path id="XMLID_17_" d="M115.807 180.803C116.562 181.561 116.562 182.735 115.807 183.492L99.4255 199.932C98.6706 200.689 97.5005 200.689 96.7455 199.932L80.8549 183.985C80.1 183.227 80.1 182.053 80.8549 181.295C81.6098 180.538 82.7799 180.538 83.5348 181.295L96.7833 194.591C97.5382 195.348 98.7083 195.348 99.4632 194.591L113.165 180.841C113.882 180.045 115.052 180.045 115.807 180.803Z" fill="#9F84FF"/>
</g>
<g id="chevron-right">
<path id="XMLID_19_" d="M178.237 83.0758C178.992 82.3182 180.162 82.3182 180.917 83.0758L197.299 99.5151C198.054 100.273 198.054 101.447 197.299 102.205L181.408 118.151C180.653 118.909 179.483 118.909 178.728 118.151C177.973 117.394 177.973 116.22 178.728 115.462L191.977 102.167C192.731 101.409 192.731 100.235 191.977 99.4773L178.275 85.7273C177.482 85.0076 177.482 83.8333 178.237 83.0758Z" fill="#9F84FF"/>
</g>
<g id="chevron-left">
<path id="XMLID_21_" d="M19.9721 118.151C19.2172 118.909 18.0471 118.909 17.2922 118.151L0.910781 101.712C0.155879 100.955 0.155879 99.7803 0.910781 99.0227L16.8015 83.0758C17.5564 82.3182 18.7265 82.3182 19.4814 83.0758C20.2363 83.8333 20.2363 85.0076 19.4814 85.7651L6.23284 99.0606C5.47794 99.8182 5.47794 100.992 6.23284 101.75L19.9343 115.5C20.6892 116.22 20.6892 117.394 19.9721 118.151Z" fill="#9F84FF"/>
</g>
</g>
</svg>
