<svg width="513" height="500" viewBox="0 0 513 500" fill="none" xmlns="http://www.w3.org/2000/svg">
<path d="M167.308 375.973C175.508 370.676 183.588 372.121 190.811 377.578C196.59 381.939 202.248 381.324 208.401 379.571C243.822 369.459 258.737 335.282 241.896 302.443C229.964 279.167 209.565 265.737 185.714 258.086C168.873 252.682 151.123 249.86 133.613 246.85C114.98 243.653 97.0417 238.77 80.9899 228.604C48.6321 208.125 33.5702 178.884 37.6902 140.507C40.1782 117.339 46.7059 95.3878 60.1493 72.9153C61.701 80.3526 63.0654 85.5694 63.868 90.8799C69.3389 127.184 85.4844 158.445 109.107 186.054C113.976 191.739 119.715 197.063 126.002 201.075C143.244 212.071 160.968 222.304 178.531 232.805C194.168 242.155 210.3 250.769 225.376 260.949C238.833 270.045 248.932 282.592 254.751 297.721C262.629 287.902 269.211 276.599 278.641 268.72C292.191 257.404 307.494 248.04 322.65 238.851C335.571 231.025 349.55 224.966 362.726 217.542C408.674 191.672 435.012 151.582 446.556 100.966C448.242 93.6087 449.593 86.1714 451.198 78.8009C451.358 78.0518 452.281 77.4499 453.632 75.8715C468.935 104.256 477.483 133.711 474.379 165.628C472.052 189.532 459.826 208.259 440.51 222.331C422.519 235.453 402.213 242.824 380.369 246.569C365.468 249.11 350.513 251.679 335.839 255.29C313.741 260.748 293.823 270.821 279.885 289.347C273.598 297.694 267.886 307.432 265.305 317.424C257.787 346.545 278.895 376.401 309.3 380.963C313.112 381.538 317.954 379.678 321.379 377.485C329.284 372.428 336.963 371.546 345.229 375.88C328.375 395.275 310.062 413.574 295.161 434.308C280.5 454.694 269.291 477.554 256.168 500C242.845 477.273 231.382 454.105 216.521 433.372C201.927 412.959 183.869 395.008 167.308 375.973ZM277.384 420.972C269.799 415.955 262.857 411.367 255.928 406.793C248.718 411.769 241.896 416.464 234.886 421.306C242.016 433.198 248.771 444.447 256.275 456.968C263.619 444.461 270.254 433.131 277.384 420.972ZM291.83 398.633C276.273 392.078 264.101 382.006 255.794 365.392C248.343 382.795 235.836 391.476 219.075 398.566C235.127 404.05 245.842 397.362 256.249 389.858C266.95 398.753 278.052 403.716 291.83 398.633Z" fill="black"/>
<path d="M172.231 344.11C180.471 342.264 187.975 341.221 195.065 338.867C210.581 333.744 217.256 321.598 213.457 306.843C209.765 292.531 195.439 282.699 181.006 285.454C174.558 286.685 168.432 289.681 162.212 292.022C144.354 298.751 126.724 306.175 108.626 312.207C74.7832 323.484 39.6699 307.619 22.1199 283.06C-0.767269 251.023 -5.66307 215.669 6.3624 175.794C9.61289 179.62 11.9538 181.907 13.7462 184.569C26.494 203.403 40.1648 221.327 57.8352 236.042C80.3612 254.809 105.991 264.266 135.245 262.942C155.163 262.046 174.251 264.574 192.322 273.295C205.445 279.622 216.534 288.21 223.677 301.199C232.813 317.812 230.526 339.75 218.313 353.621C208.869 364.336 194.262 367.559 181.956 361.647C174.545 358.089 172.659 354.825 172.231 344.11Z" fill="black"/>
<path d="M504.891 176.128C521.745 218.652 508.556 272.158 475.235 298.282C456.602 312.89 435.24 318.762 411.296 314C388.77 309.519 368.29 299.848 347.624 290.524C338.608 286.458 329.605 283.14 319.332 286.284C306.411 290.243 297.85 300.717 297.876 313.558C297.903 326.4 305.18 335.737 318.663 339.429C325.459 341.288 332.481 342.291 339.29 343.656C339.424 355.989 335.424 361.741 324.629 363.707C311.239 366.141 300.097 362.169 291.737 350.999C276.568 330.72 282.36 298.871 304.952 282.418C325.084 267.744 348.052 262.046 372.852 262.647C382.148 262.875 391.632 263.035 400.742 261.51C430.13 256.615 453.525 240.978 472.547 218.639C480.613 209.182 487.729 198.908 495.26 188.996C498.203 185.157 501.052 181.278 504.891 176.128Z" fill="black"/>
<path d="M343.343 0.2274C377.346 13.751 404.3 34.5916 415.121 70.4807C427.254 110.704 421.93 148.345 391.325 179.111C379.888 190.602 366.083 200.166 352.172 208.673C332 220.993 308.872 226.357 285.57 232.47C319.386 203.831 342.701 168.758 354.379 126.301C366.257 83.1215 364.17 41.1193 343.343 0.2274Z" fill="black"/>
<path d="M228.492 234.423C193.446 223.508 160.861 213.315 133.626 191.351C92.2395 157.976 80.0401 103.16 103.181 55.4991C114.685 31.8227 142.12 8.52083 168.659 0C130.122 91.8564 157.624 167.072 228.492 234.423Z" fill="black"/>
</svg>
