<svg width="433" height="500" viewBox="0 0 433 500" fill="none" xmlns="http://www.w3.org/2000/svg">
<path d="M152.413 386.267C158.067 387.969 163.709 389.67 170.28 391.647C182.662 376.934 191.864 360.245 198.553 342.379C205.163 324.695 210.215 306.422 216.904 285.361C224.928 325.415 237.781 360.782 261.512 391.673C268.031 389.67 273.699 387.943 280.335 385.914C258.554 424.514 237.376 462.015 215.961 499.974C216.564 499.974 216.119 500.04 215.7 499.961C215.32 499.883 214.862 499.739 214.626 499.451C214.063 498.796 213.501 498.116 213.134 497.343C195.215 459.306 174.665 422.721 152.413 386.267ZM239.117 401.857C235.373 392.472 230.412 381.424 226.538 369.997C222.676 358.636 219.914 346.921 216.577 335.048C208.487 359.081 200.804 381.921 192.963 405.234C200.424 412.315 208.409 419.907 216.197 427.302C223.854 418.794 230.805 411.085 239.117 401.857Z" fill="black"/>
<path d="M132.333 125.92C125.723 131.98 121.325 135.999 116.495 140.423C131.653 177.4 156.352 206.72 185.777 233.161C148.473 220.765 110.723 214.639 71.1407 219.496C69.57 225.778 68.0647 231.8 66.4678 238.187C43.9017 200.058 21.8723 162.858 0 125.92C42.9462 125.92 86.1804 125.92 132.333 125.92ZM70.5648 192.924C96.0236 198.304 120.2 203.409 142.399 208.108C126.954 190.791 110.33 172.164 93.5235 153.342C83.6934 156.182 73.3528 159.167 62.7897 162.217C65.4468 172.714 68.0778 183.094 70.5648 192.924Z" fill="black"/>
<path d="M432.158 125.907C410.103 163.159 388.073 200.372 365.56 238.41C364.081 231.996 362.719 226.158 361.201 219.548C322.024 214.613 284.222 220.49 246.708 233.108C275.583 206.76 300.244 177.662 316.108 139.624C311.344 136.051 306.265 132.242 301.186 128.433C301.644 127.595 302.089 126.757 302.547 125.92C345.729 125.907 388.924 125.907 432.158 125.907ZM338.753 153.316C321.383 172.701 304.838 191.157 289.654 208.108C312.325 203.33 336.737 198.186 361.515 192.963C363.989 183.303 366.659 172.884 369.382 162.243C359.067 159.232 348.74 156.222 338.753 153.316Z" fill="black"/>
<path d="M215.386 0C237.048 38.4827 258.109 75.8921 279.785 114.414C274 112.896 268.162 111.351 261.499 109.597C237.716 140.187 224.888 175.751 216.105 213.749C207.336 175.986 194.587 140.462 170.541 109.427C164.416 111.273 158.735 112.987 150.214 115.566C162.714 95.0811 174.364 77.1356 184.835 58.5356C195.49 39.5953 205.006 20.0136 215.386 0ZM193.278 96.8875C200.948 119.637 208.579 142.308 216.04 164.442C223.58 142.19 231.263 119.493 239.221 96.0236C231.97 89.0993 223.972 81.4551 215.687 73.5491C207.558 82.0049 200.11 89.7669 193.278 96.8875Z" fill="black"/>
<path d="M246.695 268.319C283.935 279.798 321.514 287.39 361.083 281.552C362.602 275.23 363.989 269.418 365.573 262.782C388.152 300.898 410.273 338.229 432.145 375.141C389.553 375.141 346.161 375.141 300.165 375.141C306.33 369.382 310.611 365.377 315.729 360.586C300.637 324.224 276.303 294.799 246.695 268.319ZM361.45 307.927C336.711 302.875 312.613 297.94 290.152 293.359C305.597 310.702 322.155 329.315 338.635 347.824C348.701 344.905 359.002 341.92 369.369 338.923C366.502 327.718 363.845 317.299 361.45 307.927Z" fill="black"/>
<path d="M66.6773 262.664C68.0517 268.882 69.269 274.34 70.8004 281.29C109.977 287.901 147.818 279.628 185.738 268.149C156.536 294.341 131.875 323.556 115.906 361.855C120.475 365.507 125.383 369.408 132.491 375.076C86.1281 375.076 42.9201 375.076 0.0916748 375.076C21.7677 338.478 43.8232 301.239 66.6773 262.664ZM70.6041 307.94C68.1956 317.731 65.5647 328.438 62.9468 339.106C74.256 342.3 84.5966 345.219 93.5497 347.745C110.527 328.687 126.823 310.414 141.98 293.385C119.401 297.992 95.2906 302.901 70.6041 307.94Z" fill="black"/>
<path d="M254.13 316.802C246.852 313.569 239.483 310.964 232.886 307.05C229.993 305.336 227.82 301.199 226.813 297.744C223.318 285.741 220.49 273.555 216.708 258.724C214.836 263.188 213.723 265.191 213.16 267.324C211.524 273.633 209.234 279.942 208.775 286.369C207.401 305.689 194.665 312.495 177.61 316.121C176.811 309.812 176.379 303.804 175.24 297.927C174.036 291.696 175.947 286.997 180.489 282.822C186.262 277.534 191.825 271.997 197.44 266.539C200.804 263.253 204.103 259.889 206.603 254.719C203.147 255.57 199.665 256.368 196.223 257.311C192.453 258.345 188.736 259.628 184.953 260.609C158.8 267.429 165.777 271.107 139.428 250.203C146.588 245.007 153.185 239.719 160.345 235.347C162.452 234.064 166.274 234.836 169.075 235.556C178.343 237.938 187.492 240.74 196.707 243.344C200.765 244.496 204.836 245.583 211.747 247.481C201.066 237.323 192.898 228.881 183.997 221.289C176.275 214.692 172.924 207.336 175.686 197.296C176.706 193.579 176.785 189.599 177.282 185.751C196.55 187.597 203.487 193.278 207.951 210.83C210.385 220.425 212.65 230.072 217.022 239.98C217.715 237.978 218.553 236.014 219.064 233.959C220.647 227.637 222.925 221.341 223.475 214.914C225.085 196.183 236.63 187.976 253.58 184.927C254.104 185.542 254.994 186.105 255.086 186.772C258.685 211.812 258.672 211.812 240.059 229.339C234.391 234.666 228.763 240.033 223.946 246.957C234.627 243.75 245.491 241.041 255.949 237.205C266.447 233.344 275.296 234.496 283.293 242.467C285.976 245.138 289.17 247.284 293.307 250.609C286.422 255.517 280.885 260.505 274.445 263.646C270.649 265.492 265.178 265.465 260.897 264.457C249.13 261.683 237.598 257.939 223.462 253.855C225.962 257.442 226.799 259.13 228.069 260.361C232.454 264.588 237.192 268.476 241.446 272.835C260.007 291.827 260.269 284.222 254.13 316.802Z" fill="black"/>
</svg>
