<svg width="531" height="500" viewBox="0 0 531 500" fill="none" xmlns="http://www.w3.org/2000/svg">
<path d="M57.8179 279.842C54.5516 283.236 51.1156 286.742 47.7362 290.306C41.6702 296.711 34.9538 299.709 26.4274 294.873C18.0283 290.122 9.54441 285.512 0 280.252C8.80914 269.718 17.7597 262.747 28.2939 259.042C32.7055 257.487 39.0967 260.004 44.0598 261.984C48.118 263.595 51.3984 267.159 57.6907 271.839C55.1596 249.06 56.913 229.434 60.7732 209.708C64.7606 189.319 74.7999 172.252 88.2045 152.852C81.2477 153.601 77.4017 153.828 73.6263 154.464C50.4228 158.409 36.8768 151.381 27.4455 129.776C24.0661 122.055 21.5916 113.925 18.9191 105.908C18.0708 103.362 17.9294 100.577 17.3638 97.2399C20.3756 96.5329 22.5814 95.5007 24.7165 95.6138C34.572 96.137 44.3992 96.9571 54.2405 97.7065C72.5234 99.0922 84.3019 109.683 87.8652 127.839C88.9398 133.339 90.0851 138.811 91.2304 144.453C96.8298 147.111 99.8416 142.742 103.235 139.928C122.974 123.582 145.74 113.67 170.951 110.645C201.352 106.996 227.44 117.658 248.961 138.967C258.477 148.384 257.911 156.062 249.031 166.03C243.842 171.842 239.939 172.351 235.344 165.776C220.073 143.958 197.209 140.649 173.864 141.851C122.522 144.481 87.6248 182.857 87.0592 234.397C86.5219 283.109 106.685 320.664 147.564 346.54C163.754 356.791 181.16 365.388 198.722 373.095C224.272 384.308 247.32 397.967 261.079 423.475C261.729 424.691 262.761 425.709 264.274 427.703C266.961 424.776 269.379 422.754 271.005 420.237C283.42 401.12 300.359 387.616 321.003 378.128C339.329 369.701 357.626 361.062 375.329 351.418C412.715 331.029 436.116 299.511 442.804 257.586C449.054 218.39 439.269 182.701 406.168 158.409C377.577 137.425 344.871 135.658 312.576 150.689C304.092 154.634 297.715 163.103 289.938 169.862C273.776 164.051 269.76 151.099 282.274 139.023C308.956 113.303 340.29 103.575 376.743 114.01C395.492 119.383 412.955 127.202 427.703 140.367C430.46 142.827 433.868 144.58 438.393 147.606C439.807 140.55 440.867 134.399 442.281 128.348C446.65 109.626 455.544 100.761 474.591 98.2156C487.034 96.5612 499.717 96.7026 514.338 95.939C509.078 113.02 505.698 129.026 495.843 142.445C486.694 154.902 473.488 156.967 459.136 154.817C454.809 154.167 450.51 153.319 445.236 153.757C469.119 189.121 478.522 227.199 472.413 270.991C476.74 268.587 478.861 267.837 480.445 266.466C494.259 254.588 499.024 256.398 513.051 264.854C518.947 268.403 523.882 273.536 530.033 278.598C525.268 282.444 521.959 285.852 518 288.199C494.853 301.858 491.587 300.119 476.966 284.013C475.538 282.43 473.516 281.383 471.565 279.927C466.941 292.582 463.208 304.502 458.302 315.913C445.137 346.554 421.552 367.905 393.81 384.859C375.385 396.114 356.523 406.832 337.095 416.221C306.255 431.125 285.47 454.71 272.249 485.705C270.496 489.805 268.346 493.75 265.292 500C261.969 493.736 259.41 489.947 257.841 485.775C245.2 452.335 221.784 429.711 189.941 413.902C166.455 402.237 143.605 388.861 121.829 374.226C89.2792 352.337 68.9602 321.385 60.8439 282.755C60.7166 282.048 59.6278 281.539 57.8179 279.842Z" fill="black"/>
<path d="M231.357 335.723C216.185 326.461 201.267 316.747 185.756 308.08C170.117 299.355 153.715 292.243 135.022 294.717C129.139 295.495 123.314 296.711 116.004 297.97C120.557 283.646 131.359 279.489 142.077 276.01C144.34 269.011 138.387 266.367 136.054 262.167C131.077 253.245 123.837 245.581 123.229 234.453C121.928 210.529 134.187 194.056 153.078 182.404C167.529 173.496 184.186 171.616 200.73 176.437C212.692 179.916 222.434 186.604 226.365 200.744C221.713 201.012 218.093 201.578 214.502 201.38C193.193 200.235 181.98 214.516 177.696 231.258C172.096 253.146 178.219 272.164 192.415 288.665C202.2 300.034 213.314 310.229 223.58 321.187C227.27 325.132 230.197 329.812 233.478 334.139C232.771 334.677 232.064 335.2 231.357 335.723Z" fill="black"/>
<path d="M305.605 201.126C305.124 189.517 313.226 184.596 320.735 180.396C353.709 161.986 401.459 185.883 407.129 223.254C409.01 235.599 405.418 246.472 398.391 256.483C394.403 262.153 390.501 267.88 385.792 274.695C397.557 279.814 409.887 282.868 413.803 297.291C407.327 296.315 401.926 295.368 396.496 294.689C379.401 292.568 363.833 297.786 349.326 305.888C334.578 314.131 320.438 323.478 306.001 332.301C303.428 333.871 300.741 335.242 298.111 336.699C297.404 335.893 296.697 335.101 295.99 334.295C304.573 324.722 312.873 314.881 321.809 305.647C333.249 293.812 345.465 282.84 351.305 266.607C356.862 251.152 356.608 236.433 349.425 221.657C342.241 206.866 330.675 199.98 314.259 201.083C311.53 201.281 308.758 201.126 305.605 201.126Z" fill="black"/>
<path d="M265.222 135.517C252.029 121.56 238.257 111.026 228.727 96.2642C223.042 87.4551 221.36 78.0662 223.99 68.0835C225.531 62.2296 227.016 56.0363 230.126 50.9884C240.816 33.5822 252.213 16.6143 263.016 0C265.83 0.820113 267.102 0.791833 267.512 1.37157C280.196 19.2585 294.138 36.2264 303.06 56.6867C311.247 75.4504 307.457 91.5557 294.76 106.035C286.177 115.82 276.321 124.53 265.222 135.517Z" fill="black"/>
</svg>
