<svg width="467" height="500" viewBox="0 0 467 500" fill="none" xmlns="http://www.w3.org/2000/svg">
<path d="M466.034 249.313C453.342 273.507 436.094 294.668 416.32 315.965C377.056 203.14 308.72 110.498 231.654 21.8791C188.23 72.3732 143.778 120.502 125.539 185.446C126.282 186.09 127.013 186.734 127.756 187.378C162.054 158.651 196.365 129.913 231.691 100.332C271.821 138.184 304.621 180.877 330.178 230.777C305.389 258.884 275.66 280.652 245.286 303.881C238.699 295.845 232.818 288.663 228.521 283.425C244.742 266.128 259.848 249.82 275.201 233.736C284.364 224.14 284.674 224.239 279.015 212.637C267.958 190.003 251.453 171.9 230.997 155.222C223.308 159.852 215.309 163.976 208.066 169.151C175.08 192.653 144.818 219.323 116.946 248.694C114.99 250.749 113.182 252.941 110.879 255.553C109.121 253.523 107.895 252.507 107.164 251.22C91.7983 224.227 80.0725 195.822 72.9032 165.523C71.2193 158.391 72.5442 153.055 76.8284 147.309C104.106 110.77 136.584 79.2204 170.833 49.4168C187.598 34.8184 205.094 21.0495 222.318 6.9711C225.45 4.40801 228.88 2.20401 231.951 0C302.628 41.4056 437.889 185.446 466.034 249.313Z" fill="black"/>
<path d="M231.27 500C202.865 475.731 174.795 452.775 147.901 428.506C105.889 390.605 66.9351 349.731 33.5159 303.942C22.8426 289.319 13.5932 273.668 3.42749 258.674C-0.757651 252.507 -1.47581 247.01 3.32843 240.806C17.1716 222.902 30.7547 204.799 44.5112 186.833C45.4522 185.607 46.9628 184.815 49.0306 183.18C87.7617 294.805 155.95 387.199 231.852 474.728C266.645 452.032 332.951 350.932 338.709 310.394C302.33 339.07 269.109 368.738 233.325 397.885C193.381 360.392 160.717 317.674 134.789 267.49C159.38 239.605 189.257 217.887 219.569 194.485C225.933 202.1 231.889 209.232 237.436 215.869C229.734 224.202 222.999 231.879 215.842 239.147C206.295 248.83 196.575 258.364 186.632 267.638C182.361 271.625 181.519 275.588 183.797 280.813C194.111 304.401 210.53 323.147 229.895 339.64C233.375 342.599 236.817 341.757 240.123 339.665C248.134 334.613 256.356 329.821 263.934 324.187C295.075 300.996 324.197 275.488 350.546 246.911C351.636 245.722 352.899 244.694 353.988 243.679C354.967 244.1 355.932 244.199 356.23 244.694C373.156 272.789 385.129 302.865 392.633 334.799C394.131 341.188 392.063 345.744 388.448 350.66C367.584 379.003 343.501 404.46 317.424 427.912C293.836 449.122 269.208 469.169 244.989 489.661C241.213 492.806 237.151 495.567 231.27 500Z" fill="black"/>
</svg>
