<svg width="502" height="500" viewBox="0 0 502 500" fill="none" xmlns="http://www.w3.org/2000/svg">
<path d="M109.525 442.358C112.377 443.521 115.343 444.472 118.068 445.891C155.972 465.616 196.416 475.295 238.945 477.977C320.103 483.1 386.431 421.043 385.721 340.013C385.154 275.218 334.521 218.469 269.825 209.358C250.241 206.605 231.226 207.741 212.38 213.289C203.142 216.014 193.748 217.901 184.666 213.786C172.561 208.294 165.565 198.658 164.529 185.205C163.493 171.696 168.431 160.442 180.593 154.567C191.534 149.288 203.326 144.974 215.233 142.576C334.805 118.509 439.462 219.845 423.71 334.976C417.182 382.714 394.066 420.93 356.517 450.716C352.557 453.852 348.485 456.861 345.277 461.473C347.647 460.437 350.159 459.656 352.359 458.351C416.615 419.965 450.644 362.988 453.795 288.657C458.705 172.888 367.997 96.3992 289.891 83.2727C209.201 69.7063 142.732 94.228 91.077 157.746C75.7509 176.606 57.842 180.877 39.3797 168.787C27.5446 161.038 22.5636 149.09 27.1047 135.722C29.8009 127.789 33.7885 120.027 38.5141 113.088C80.6609 51.1305 139.439 14.8871 213.047 3.06608C325.623 -15.0272 455.299 46.9725 493.103 188.668C531.688 333.287 435.716 461.53 309.871 492.636C263.382 504.13 217.134 501.988 171.482 487.428C146.066 479.325 125.774 463.914 109.525 442.358Z" fill="black"/>
<path d="M318.57 423.782C300.917 450.475 265.227 464.623 232.12 458.067C190.966 449.921 160.853 414.118 159.434 371.701C158.129 332.308 187.064 294.205 226.983 284.456C257.252 277.077 285.051 283.08 309.02 303.756C323.282 316.059 330.718 332.152 333.598 350.344C335.656 363.329 330.987 374.682 321.99 383.906C310.084 396.11 289.011 394.336 278.439 379.961C274.352 374.398 271.882 367.501 269.356 360.945C260.359 337.643 238.435 329.924 216.723 342.639C187.277 359.895 180.99 395.755 202.688 422.817C222.3 447.282 257.138 455.484 287.464 441.833C298.348 436.951 308.239 429.87 318.57 423.782Z" fill="black"/>
<path d="M34.6258 220.186C52.1941 220.158 67.9459 235.966 68.1871 253.847C68.4284 271.67 51.4136 288.43 33.4196 288.089C15.6952 287.748 0.0569167 271.855 0.000153349 254.102C-0.05661 235.611 15.6526 220.214 34.6258 220.186Z" fill="black"/>
<path d="M102.543 364.791C102.316 377.718 91.5736 388.163 78.8303 387.865C66.6829 387.581 55.0748 375.902 55.1316 364.024C55.2025 351.721 66.3991 340.467 78.7451 340.297C92.2264 340.113 102.784 350.969 102.543 364.791Z" fill="black"/>
</svg>
